<svg width="63" height="80" xmlns="http://www.w3.org/2000/svg">

 <g>
  <title>Layer 1</title>
  <path id="svg_1" fill="#2B4F75" clip-rule="evenodd" fill-rule="evenodd" d="m0.14938,54.233l0,0c-0.259,-0.516 -0.129,-1.678 0,-2.195c0,-0.387 0.258,-1.162 0.388,-1.55c0,-0.258 -0.129,-0.775 0,-0.904c0.129,-0.258 0.776,-0.517 1.034,-0.646c0.259,-0.258 0.646,-1.033 0.776,-1.291c0.129,-0.387 0,-1.033 0,-1.291c0.129,-0.516 0.388,-1.42 0.517,-1.808c0.129,-0.258 0.388,-0.775 0.517,-1.162c0.129,-0.387 -0.129,-1.162 0,-1.55c0.129,-0.258 0.517,-0.775 0.905,-0.904c0.129,-0.129 0.646,-0.129 0.905,0c0.259,0 0.646,0.258 0.905,0.387c0.129,0 0.517,0 0.646,-0.129c0.258,-0.129 0.258,-0.904 0.388,-1.162c0.258,-0.129 0.905,-0.258 1.163,-0.258c0.129,0 0.517,0 0.776,0c0.259,-0.129 0.646,-0.517 0.776,-0.646c0.388,0 0.905,0.129 1.293,0c0.129,0 0.388,-0.387 0.517,-0.646c0,-0.258 -0.129,-0.775 0,-1.033c0,-0.258 0.258,-0.775 0.517,-0.904c0.259,-0.129 1.034,0 1.293,-0.129c0.258,-0.129 0.646,-0.517 0.776,-0.775c0.259,-0.387 0.259,-1.162 0.388,-1.549c0.129,-0.258 0.517,-0.646 0.646,-0.904c0,-0.258 -0.517,-0.904 -0.388,-1.162c0.258,-0.387 1.034,-0.387 1.293,-0.516c0.259,-0.258 0.388,-1.033 0.388,-1.42c0,-0.129 -0.129,-0.646 -0.129,-0.775c0,-0.387 0.517,-1.162 0.388,-1.42c-0.129,-0.258 -0.905,-0.388 -0.905,-0.517c-0.129,-0.258 0.388,-0.775 0.517,-0.904c0.129,-0.129 0.517,-0.388 0.517,-0.517c0.129,-0.258 -0.129,-0.646 0,-0.904c0.129,-0.129 0.646,-0.129 0.776,-0.258c0.129,-0.129 0.258,-0.517 0.129,-0.646c0,-0.129 -0.258,-0.258 -0.388,-0.258c-0.129,-0.129 -0.388,0 -0.517,0c-0.259,-0.129 -0.388,-0.387 -0.517,-0.646c-0.129,-0.129 -0.129,-0.129 -0.129,-0.129c-0.129,-0.258 -0.258,-0.904 -0.258,-1.162c0,-0.129 0.388,-0.516 0.388,-0.775c0,-0.258 -0.129,-0.646 -0.259,-0.904c0,-0.129 -0.388,-0.258 -0.388,-0.387c-0.258,-0.129 -0.517,-0.646 -0.517,-0.904c0,-0.258 0.517,-0.775 0.776,-0.904c0.258,-0.129 0.905,0.129 1.293,0.129c0.258,0 0.776,-0.388 1.034,-0.517c0.129,-0.258 0.517,-0.775 0.646,-1.033c0.259,-0.387 0.646,-1.162 0.646,-1.549c0.129,-0.387 0.129,-1.162 -0.129,-1.549c-0.129,-0.129 -0.388,-0.258 -0.517,-0.388c-0.129,-0.258 -0.258,-0.904 -0.388,-1.162c-0.129,-0.258 -0.258,-0.904 -0.517,-1.162c-0.129,-0.129 -0.517,0 -0.646,-0.129c-0.258,-0.129 -0.646,-0.517 -0.776,-0.775c-0.129,-0.258 -0.258,-0.904 -0.258,-1.291c0,-0.129 0.129,-0.387 0.258,-0.516c0.129,-0.258 0.259,-0.387 0.388,-0.517c0.129,-0.258 0.646,-0.516 1.034,-0.646c0.388,-0.129 1.163,0 1.551,-0.129c0.388,-0.129 0.776,-0.775 1.163,-0.904c0.129,-0.129 0.646,-0.387 0.905,-0.387c0.258,-0.129 0.776,-0.129 1.034,-0.129c0.388,0 1.293,-0.388 1.68,-0.258c0.259,0.129 0.388,0.517 0.646,0.646c0.129,0 0.517,-0.129 0.776,-0.258c0.388,-0.129 1.034,-0.517 1.293,-0.775c0.129,-0.129 0.258,-0.646 0.388,-0.775c0.129,-0.258 0.258,-0.904 0.388,-1.162c0.258,-0.129 0.776,-0.129 1.034,-0.387c0.129,0 0.517,-0.387 0.517,-0.516c0,-0.258 -0.258,-0.646 -0.258,-0.904s0.258,-0.516 0.388,-0.646c0.129,-0.129 0.517,-0.258 0.776,-0.387c0.129,0.258 0.388,0.517 0.517,0.646c0,0.258 -0.129,0.646 0,0.775c0,0.387 0.646,0.775 0.776,1.033c0,0.258 0.129,0.646 0.129,0.775c0,0.258 -0.258,0.904 -0.129,1.162c0,0.129 0.259,0.516 0.388,0.646c0.129,0.388 0.388,0.904 0.388,1.291c0,0.387 -0.517,1.033 -0.388,1.42c0,0.129 0.517,0.258 0.646,0.387c0.129,0.258 0.129,0.904 0.388,1.162c0,0 0.388,0.129 0.388,0.258c0.258,0.129 0.646,0.516 0.776,0.775c0.129,0.129 0,0.775 0.129,1.033c0.258,0.258 0.776,0.387 1.034,0.517c0.129,0.129 0.517,0.387 0.517,0.516c0.129,0.258 -0.129,0.904 -0.129,1.162c0,0.258 0.259,0.775 0.388,0.904c0.129,0.129 0.517,0.258 0.646,0.387c0.258,0 0.517,-0.129 0.776,0c0.129,0 0.388,0.516 0.646,0.646c0.259,0 0.646,0 0.776,0.129c0.388,0.258 0.517,1.033 0.646,1.291c0,0.388 -0.129,0.904 0,1.162c0,0.258 0.517,0.517 0.646,0.775c0.129,0.129 0,0.516 0,0.775c0,0.129 -0.258,0.388 -0.258,0.517c0,0.129 0.129,0.387 0.129,0.387c0.259,0.129 0.646,0.129 0.905,0c0.129,0 0.517,0 0.646,0c0,-0.129 0,-0.516 0.129,-0.516c0.129,-0.129 0.646,0 0.776,0c0.259,0 0.646,0 0.776,0c0.129,-0.129 0.388,-0.258 0.388,-0.388c0.129,-0.129 0,-0.517 0,-0.646c0.129,-0.129 0.517,-0.258 0.776,-0.129c0.129,0 0.517,0.387 0.776,0.646c0.129,0.129 0.388,0.517 0.517,0.517c0.258,0 0.646,-0.388 0.905,-0.646c0,0 0,-0.387 0.129,-0.387c0.129,-0.129 0.517,-0.129 0.646,0c0.129,0.129 0.259,0.517 0.388,0.646c0.259,0.129 0.905,-0.129 1.163,0c0.258,0.129 0.388,0.775 0.388,1.033c0.129,0.258 -0.129,0.775 0,0.904c0.129,0.258 0.776,0.129 0.905,0.258c0.258,0.258 0.388,1.033 0.517,1.291c0,0.258 0,0.646 -0.129,0.904c0,0.129 -0.517,0.387 -0.646,0.516c-0.129,0.129 -0.129,0.517 0,0.775c0.129,0.129 0.388,0.258 0.646,0.258c0.129,0 0.517,-0.258 0.776,-0.258c0.129,-0.129 0.646,-0.387 0.776,-0.387c0.388,0 0.905,0.129 1.163,0.129c0.258,0.129 0.776,0.387 1.034,0.387c0.259,0 0.905,-0.258 1.034,-0.387c0.129,-0.129 0.258,-0.517 0.388,-0.646c0.129,-0.129 0.517,-0.258 0.776,-0.258c0.129,0 0.517,0.129 0.646,0.258c0.129,0 0.388,0.387 0.517,0.387c0.258,0.129 0.646,-0.129 0.776,-0.258c0.129,-0.129 0.259,-0.516 0.388,-0.646c0.129,-0.129 0.388,0 0.646,0c0,0.129 0,0.258 0,0.387c0.129,0.129 0.388,0.258 0.646,0.388c0.129,0 0.388,-0.129 0.517,0c0.258,0 0.517,0.129 0.646,0.258c0.129,0.258 -0.129,0.904 0,1.162c0,0.258 0.259,0.775 0.517,0.904c0.129,0.129 0.646,0.258 0.776,0.388c0.129,0 0.517,0.129 0.517,0.258c0.129,0.387 0.129,1.033 0,1.42c0,0.258 -0.259,0.904 -0.388,1.162c-0.129,0.129 -0.646,0.258 -0.646,0.387c-0.129,0.129 0,0.645 -0.129,0.904c-0.259,0.258 -1.034,0.129 -1.163,0.387c-0.129,0.129 -0.129,0.646 0,0.904c0,0.129 0.259,0.387 0.388,0.516c0,0.258 -0.129,0.775 -0.129,1.033c-0.129,0.129 -0.259,0.516 -0.388,0.646c-0.129,0.129 -0.388,0.258 -0.388,0.387c-0.129,0.129 -0.129,0.516 -0.259,0.646c-0.129,0.129 -0.646,0.129 -0.905,0.129c-0.129,0 -0.259,-0.129 -0.388,-0.129c-0.259,0 -0.776,0.129 -0.905,0.258c-0.259,0.129 -0.388,0.646 -0.388,0.775c0,0.387 0.258,0.904 0.517,1.033c0.129,0.258 0.776,0.258 1.034,0.516c0.129,0.258 0.258,0.904 0.258,1.291c0,0.129 -0.129,0.775 0,0.904c0.129,0.258 0.388,0.387 0.517,0.516c0.129,0.129 0.129,0.517 0.129,0.775c-0.129,0.258 -0.517,0.516 -0.646,0.646c-0.129,0.129 -0.646,0.129 -0.646,0.258c-0.129,0.129 -0.258,0.517 -0.129,0.646c0,0.129 0.388,0.258 0.517,0.516c0,0.258 -0.129,0.775 0,1.033c0,0.258 0.388,0.517 0.388,0.646c0.129,0.258 0.129,0.775 0,1.033c0,0.258 -0.258,0.775 -0.388,0.904c-0.129,0.129 -0.517,0.387 -0.517,0.517c-0.129,0.258 -0.129,0.775 0,1.033c0,0.258 0.259,0.904 0.517,1.033c0.129,0.258 0.646,0.258 0.905,0.517c0.129,0.129 0.388,0.517 0.517,0.775c0.129,0.387 0.129,1.291 0.259,1.679c0.129,0.129 0.646,0.258 0.646,0.517c0.259,0.258 0.259,1.033 0.129,1.291c0,0.387 -0.129,0.904 -0.258,1.162c0,0.258 0.129,0.904 0.258,1.162c0.129,0.129 0.646,0.387 0.905,0.645c0.129,0.129 0.388,0.646 0.517,0.904c0,0.387 -0.129,1.291 -0.258,1.678c-0.129,0.258 -0.388,0.775 -0.388,1.033c-0.129,0.258 0,0.775 0,1.033s0.388,0.646 0.388,0.904s-0.388,0.904 -0.517,1.162c-0.129,0.258 -0.517,0.646 -0.517,0.904c0,0.129 0,0.258 0,0.516c-0.129,-0.129 -0.388,-0.129 -0.388,-0.129c-0.259,0 -0.776,-0.387 -1.034,-0.258c-0.129,0 -0.388,0.387 -0.517,0.516c-0.259,0.129 -0.905,0.258 -1.163,0.517c-0.129,0.129 -0.129,0.516 -0.258,0.645c-0.129,0.258 -0.388,0.517 -0.646,0.517c-0.258,0.129 -1.163,-0.258 -1.422,0c0,0.129 0.388,0.516 0.258,0.646c-0.129,0.129 -0.388,0 -0.646,0s-0.646,-0.129 -0.905,0c-0.258,0 -0.517,0.387 -0.776,0.387c-0.129,0.129 -0.646,-0.129 -0.776,0c-0.129,0.129 0.258,0.775 0,0.775c-0.129,0.129 -0.646,0.258 -0.776,0.387c-0.129,0.129 -0.259,0.517 -0.259,0.646c0,0.129 0.259,0.258 0.259,0.258c0,0.129 -0.259,0.387 -0.259,0.517c0,0.129 0.259,0.387 0.388,0.517c0.129,0.258 0.388,0.904 0.258,1.162c0,0 -0.258,-0.129 -0.388,0c-0.129,0 -0.388,0.516 -0.517,0.645c-0.388,0.258 -1.293,0.258 -1.681,0.258c-0.258,-0.129 -0.646,-0.517 -0.776,-0.517c-0.258,0 -0.646,0.387 -0.776,0.517c-0.129,0 -0.388,0.258 -0.517,0.258c-0.388,0.387 -1.551,0.646 -1.81,1.162c-0.129,0.129 0.129,0.645 0,0.775c-0.129,0.258 -0.646,0.258 -0.776,0.517c-0.388,-0.129 -0.776,-0.129 -1.034,0c-0.258,0.129 -0.258,0.517 -0.517,0.646c-0.388,0.258 -1.68,0.516 -2.197,0.258c-0.259,0 -0.388,-0.387 -0.517,-0.387c-0.388,-0.129 -1.163,0 -1.68,0c-0.258,-0.129 -0.905,-0.387 -1.163,-0.517c-0.258,0 -0.905,0 -1.163,0c-0.388,0.129 -0.776,0.517 -1.163,0.517c-0.259,-0.129 -0.517,-0.775 -0.776,-0.904c-0.259,0 -0.776,-0.129 -0.905,0c-0.129,0.258 0.388,1.033 0.388,1.291c0,0.258 -0.129,0.646 -0.388,0.646c-0.259,0 -0.388,-0.646 -0.646,-0.775c-0.258,0 -0.905,0.129 -1.034,0.388c-0.129,0.129 0.129,0.517 0,0.646c-0.258,0.129 -0.905,0.129 -1.163,0c-0.129,-0.129 0.258,-0.904 0,-1.033c-0.129,-0.258 -0.517,-0.258 -0.646,-0.258c-0.388,0 -0.905,-0.129 -1.163,0c-0.258,0.129 -0.646,0.387 -0.776,0.646c-0.129,0.129 0.129,0.517 0,0.646c-0.129,0.258 -0.905,0.516 -1.163,0.646c-0.258,0 -0.646,0.387 -0.905,0.258c-0.129,-0.129 -0.129,-0.775 -0.258,-1.033c-0.258,-0.129 -0.646,-0.517 -1.034,-0.517c-0.129,0 -0.388,0.258 -0.517,0.387c-0.129,0.129 -0.129,0.516 -0.259,0.646c-0.258,0.129 -0.905,0.129 -1.293,0c-0.129,0 -0.388,-0.387 -0.517,-0.516c-0.129,0 -0.388,-0.129 -0.517,-0.258c0,-0.129 -0.129,-0.129 -0.129,-0.258c0,-0.258 0.646,-0.646 0.646,-1.033c-0.129,-0.129 -0.259,-0.387 -0.388,-0.517c-0.259,-0.129 -0.905,-0.129 -1.034,-0.387c-0.129,-0.387 0.388,-1.033 0.388,-1.291c0,-0.387 -0.129,-0.904 -0.388,-1.162c-0.129,-0.129 -0.776,0 -0.905,0c-0.388,0.129 -0.905,0.517 -1.293,0.387c-0.388,-0.129 -0.388,-1.162 -0.776,-1.42c-0.258,-0.387 -1.034,-0.516 -1.422,-0.646c-0.258,-0.387 -0.776,-1.162 -0.905,-1.55c0,-0.387 0.388,-0.904 0.388,-1.291c0,-0.258 0.129,-0.904 0,-1.291c-0.129,-0.258 -0.517,-0.904 -0.776,-1.162s-0.905,-0.646 -1.163,-0.904c-0.258,-0.387 -0.129,-1.42 -0.388,-1.808c-0.129,-0.387 -1.034,-0.646 -1.293,-0.904c-0.129,-0.258 -0.258,-0.904 -0.388,-1.162c-0.129,-0.387 -0.388,-1.42 -0.776,-1.679c-0.129,-0.129 -0.646,-0.258 -0.905,-0.387c-0.129,-0.129 -0.517,-0.775 -0.776,-0.775c-0.129,-0.129 -0.517,0 -0.646,0.129c-0.129,0.258 0.129,0.904 0,1.162c0,0.129 -0.259,0.258 -0.388,0.387c-0.259,0.129 -0.905,-0.129 -1.163,0c-0.129,0.129 -0.259,0.517 -0.388,0.646c-0.129,0 -0.388,0 -0.517,0c-0.388,-0.129 -1.163,-0.387 -1.551,-0.387c-0.259,0 -0.517,0.258 -0.776,0.129c-0.258,-0.129 -0.776,-0.775 -0.905,-1.162c0,-0.258 0.258,-0.904 0.258,-1.162s0,-1.033 -0.258,-1.291c0,-0.129 -0.517,-0.387 -0.646,-0.387c-0.258,0 -0.517,0.258 -0.776,0.129c-0.258,-0.129 -0.258,-0.775 -0.517,-0.904c-0.129,-0.258 -0.776,-0.258 -1.034,-0.387c-0.258,-0.258 -0.646,-1.162 -0.776,-1.42c-0.133,-0.132 -0.262,-0.261 -0.391,-0.39l0,0z"/>
 </g>
</svg>