<svg width="58" height="50" xmlns="http://www.w3.org/2000/svg">

 <g>
  <title>Layer 1</title>
  <path id="svg_1" fill="#2B4F75" clip-rule="evenodd" fill-rule="evenodd" d="m16.046,38.898c-0.129,0 -0.259,-0.13 -0.259,-0.13c-0.388,-0.13 -1.035,-0.778 -1.423,-0.908c-0.259,-0.13 -0.906,0.13 -1.294,0c-0.129,0 -0.388,-0.389 -0.518,-0.519c-0.129,0 -0.259,0.259 -0.388,0.259c-0.129,0.13 -0.259,0.648 -0.518,0.778c-0.129,0 -0.388,0 -0.517,0c-0.259,0.13 -0.776,0.389 -0.906,0.648c-0.129,0.13 -0.129,0.389 -0.259,0.389c0,0.13 -0.129,0.259 -0.259,0.259c-0.259,0 -0.776,-0.13 -1.035,-0.13c-0.388,-0.13 -1.035,-0.259 -1.164,-0.518c-0.259,-0.13 -0.388,-0.648 -0.518,-0.908c-0.259,-0.389 -0.776,-0.908 -0.906,-1.296c-0.129,-0.389 0,-1.037 0,-1.426s-0.388,-1.037 -0.518,-1.426c0.388,-0.13 0.776,-0.389 1.035,-0.389c0.259,0 0.776,0.259 1.164,0.389c0.259,0 0.906,0.13 1.294,0.13c0.129,0 0.647,0.13 0.776,-0.13c0.129,0 0.129,-0.13 0.129,-0.259c-0.129,-0.13 -0.388,-0.259 -0.517,-0.389c-0.129,-0.13 -0.518,-0.259 -0.647,-0.389c-0.388,-0.13 -1.164,-0.389 -1.423,-0.648c-0.129,-0.259 0,-0.778 -0.129,-1.037c-0.129,-0.259 -0.518,-0.519 -0.647,-0.648c-0.129,-0.389 -0.388,-1.037 -0.517,-1.426c0,-0.259 0,-0.778 0,-1.037c-0.129,-0.259 -0.259,-0.648 -0.259,-0.778c0,-0.259 0.259,-0.648 0.259,-0.908c0,-0.13 0,-0.519 0.129,-0.778c0,-0.389 0.518,-1.037 0.518,-1.426c0.129,-0.259 -0.129,-0.778 -0.129,-0.908c0,-0.259 0.259,-0.778 0.388,-0.908c0,-0.259 0.388,-0.648 0.388,-0.778c-0.129,-0.13 -0.517,-0.13 -0.647,-0.13c0,0.13 -0.129,0.259 -0.259,0.259c-0.129,0 -0.388,-0.259 -0.518,-0.389c-0.129,-0.259 -0.129,-0.907 -0.129,-1.167c0,-0.13 0.259,-0.648 0.259,-0.778c0.129,-0.13 0.129,-0.389 0.129,-0.519c0.129,-0.259 0,-0.778 0,-0.908c0,-0.259 -0.259,-0.778 -0.259,-1.037s0.259,-0.778 0.259,-1.037c0,-0.13 -0.129,-0.389 -0.259,-0.519c-0.129,-0.13 -0.388,0 -0.518,-0.13c-0.129,-0.259 -0.129,-0.778 -0.259,-1.167c0,-0.13 0.129,-0.648 0,-0.778c-0.129,-0.259 -1.035,-0.259 -1.294,-0.519c-0.129,-0.13 -0.129,-0.648 -0.129,-0.908c-0.129,-0.259 -0.647,-0.648 -0.776,-0.907c-0.259,-0.13 -0.647,-0.519 -0.776,-0.648c0,-0.389 0.259,-1.037 0.259,-1.296c-0.129,-0.259 -0.517,-0.778 -0.647,-1.037c-0.129,-0.259 -0.647,-0.778 -0.776,-1.037c-0.129,-0.259 -0.129,-1.037 0,-1.296c0,-0.259 0.259,-0.648 0.388,-0.778c0.129,0 0.388,0 0.388,-0.13c0.259,-0.13 0.388,-0.648 0.388,-0.907c0,-0.389 0,-1.296 -0.259,-1.556c-0.259,-0.259 -0.776,-0.389 -1.035,-0.389c-0.129,-0.13 -0.647,-0.13 -0.647,-0.13c0,-0.13 -0.259,-0.648 -0.259,-0.907s0.129,-0.778 0.259,-0.908c0.129,0 0.517,0 0.647,0s0.388,0.259 0.518,0.389c0.259,0.13 1.035,-0.13 1.294,0c0.129,0 0.259,0.389 0.388,0.519c0.259,0.13 0.906,0.389 1.294,0.519c0.259,0.13 0.776,0.389 1.035,0.519c0.388,0.13 1.035,0.519 1.423,0.648c0.517,0 1.552,0.13 1.941,0c0.259,-0.13 0.388,-0.778 0.518,-0.908c0.259,-0.13 0.647,-0.389 0.906,-0.389c0.259,-0.13 1.035,-0.389 1.423,-0.389c0.129,0.13 0.647,0.389 0.776,0.389c0.259,0 0.776,-0.13 1.035,0c0.259,0 0.647,0.519 0.906,0.648c0,0.259 0.129,0.648 0.129,0.908c0.129,0.259 0.259,0.907 0,1.167c-0.129,0.13 -0.517,0.13 -0.647,0.13c-0.129,0.13 -0.259,0.259 -0.388,0.389c0,0.13 -0.129,0.389 -0.129,0.519c-0.129,0 -0.388,0.13 -0.388,0.259c-0.129,0.259 -0.129,0.778 -0.129,1.037c0.129,0.259 0.388,0.778 0.517,1.037c0.129,0.259 0.388,0.519 0.518,0.648c0,0.259 0.129,0.648 0.259,0.907c0.129,0.13 0.518,0.259 0.647,0.389c0.129,0.259 0.129,0.519 0.129,0.778c0.129,0.259 0,0.908 0,1.296c0,0.259 0,0.907 0,1.296c0,0.13 0.129,0.519 0.129,0.778s-0.129,0.648 0,0.778c0,0.259 0.388,0.389 0.647,0.389c0.129,0 0.259,-0.389 0.259,-0.519c0,-0.13 0,-0.519 0,-0.648c0.129,-0.259 0.388,-0.648 0.518,-0.908c0.129,-0.259 -0.129,-0.908 0.129,-1.166c0,-0.13 0.518,-0.389 0.647,-0.519c0.388,0 0.906,0 1.294,0c0.129,0.13 0.518,0.259 0.647,0.389c0.259,0 0.518,-0.13 0.776,-0.13c0.129,0 0.647,0.259 0.776,0.259c0.388,0.259 0.906,0.648 1.294,0.778c0.259,0.13 1.035,0.389 1.294,0.389c0.518,0.13 1.553,0.13 2.07,0.13c0.776,0 2.199,-0.13 2.976,0c0.518,0 1.811,0.389 2.458,0.648c0.518,0.13 1.553,0.648 2.07,0.778c0.388,0.13 0.906,0.519 1.294,0.648c0.518,0.13 1.553,0 2.07,0c0.518,-0.13 1.553,-0.519 2.07,-0.648c0.388,-0.259 1.035,-0.778 1.294,-0.908c0.388,-0.389 1.164,-1.037 1.552,-1.296c0.259,-0.13 0.776,-0.518 1.035,-0.648c0.388,-0.13 1.035,-0.389 1.423,-0.389c0.388,-0.13 0.906,0 1.164,0c0,0.259 0,0.648 0,0.777c0,0.389 0.518,1.296 0.388,1.685c0,0.259 -0.518,0.519 -0.647,0.778c0,0.259 0.259,0.907 0.388,1.037c0.129,0.13 0.518,0.13 0.647,0.259c0.129,0 0.259,0.259 0.259,0.389c0,0.259 0.129,0.778 0,0.907c-0.129,0.13 -0.388,0.259 -0.518,0.389c0,0.259 0.388,0.519 0.388,0.778c0.129,0.259 0.518,0.908 0.647,1.296c0,0.13 -0.129,0.648 0,0.908c0,0.259 0.388,0.907 0.388,1.296c0.129,0.13 0.129,0.519 0,0.648c-0.129,0.13 -0.647,0.13 -0.776,0.259c-0.129,0.13 -0.129,0.519 -0.129,0.648c0,0.259 0.388,0.519 0.518,0.778c0.129,0.13 0.518,0.389 0.518,0.648c0.129,0.259 0,0.908 0,1.167c-0.129,0.13 -0.388,0.518 -0.388,0.648c-0.129,0.389 -0.259,1.167 -0.129,1.426s0.518,0.389 0.776,0.519c0.129,0 0.518,-0.13 0.776,0c0.129,0 0.388,0.519 0.518,0.519c0.388,0.13 1.164,0 1.423,-0.259c0.129,0 0,-0.259 0.129,-0.259c0.129,0 0.518,0.13 0.518,0.259c0.129,0.13 0,0.519 0,0.648c0.129,0.13 0.388,0.389 0.388,0.519c0.259,0.13 0.259,0.778 0.388,1.037c0.129,0.13 0.517,0.518 0.647,0.518c0.259,0 0.776,-0.389 1.035,-0.389c0.129,0.13 0.259,0.389 0.259,0.519c0.129,0.259 0.388,0.648 0.388,0.907c0,0.259 -0.388,0.519 -0.517,0.778c0,0.13 -0.129,0.648 0,0.908c0.129,0.13 0.388,0.259 0.517,0.389c0.129,0.13 0.388,0.519 0.647,0.648c0.129,0 0.388,0 0.647,0c-0.129,0.13 -0.259,0.389 -0.259,0.519c0,0.389 0.129,1.037 0.259,1.296c0.129,0.259 0.518,0.648 0.776,0.778c0.129,0.13 0.518,0 0.647,0.13c0.259,0.259 0.388,0.908 0.518,1.167c0.129,0.259 0.259,0.907 0.388,1.167c0.129,0.13 0.388,0.259 0.517,0.389c0.259,0.389 0.259,1.167 0.129,1.556c0,0.389 -0.388,1.167 -0.647,1.556c-0.129,0.259 -0.518,0.778 -0.647,1.037c-0.259,0.13 -0.776,0.519 -1.035,0.519c-0.388,0 -1.035,-0.259 -1.294,-0.13c-0.259,0.13 -0.776,0.648 -0.776,0.908c0,0.259 0.259,0.778 0.518,0.907c0,0.13 0.388,0.259 0.388,0.389c0.129,0.259 0.259,0.648 0.259,0.907s-0.388,0.648 -0.388,0.778c0,0.259 0.129,0.907 0.259,1.167c0,0 0,0 0.129,0.13c-0.259,0 -0.388,0 -0.388,0c-0.388,0 -0.906,0 -1.164,-0.259c-0.129,-0.13 -0.259,-0.648 -0.388,-0.778c-0.259,-0.259 -0.647,-0.259 -0.776,-0.519c-0.129,-0.13 -0.129,-0.648 -0.259,-0.778c-0.259,-0.259 -0.906,-0.519 -1.164,-0.389c-0.259,0.13 -0.129,0.778 -0.388,0.908c-0.259,0 -0.518,-0.259 -0.776,-0.389c-0.388,-0.13 -1.682,-0.259 -1.682,-0.389c0,-0.13 0.259,-1.167 0,-1.426c-0.129,-0.13 -0.518,-0.259 -0.776,-0.259c-0.259,-0.13 -1.035,0 -1.035,0c0,-0.13 -0.129,-0.648 -0.259,-0.778c0,-0.389 0.259,-0.907 0.259,-1.167c-0.129,-0.259 -0.259,-0.778 -0.388,-1.167c0,-0.259 0.129,-0.778 0,-1.037c0,-0.13 -0.388,-0.519 -0.647,-0.648c-0.129,-0.13 -0.647,-0.259 -0.906,-0.259c-0.388,-0.13 -1.423,-0.259 -1.941,0c-0.129,0 -0.259,0.389 -0.388,0.519c-0.259,0.13 -0.906,0.13 -1.035,0.389c-0.129,0.13 0.129,0.519 0,0.648c-0.129,0.259 -0.647,0.519 -0.906,0.648c-0.129,0.13 -0.129,0.519 -0.259,0.519c-0.259,0.13 -0.647,0.13 -0.906,0c-0.129,0 -0.518,-0.259 -0.647,-0.259c-0.129,0 -0.388,0.259 -0.647,0.259c-0.129,-0.13 -0.388,-0.519 -0.388,-0.778c-0.129,-0.259 0,-1.037 -0.259,-1.296c-0.259,-0.259 -0.906,-0.259 -1.164,-0.389c-0.129,-0.13 -0.518,-0.259 -0.518,-0.519c-0.129,-0.259 0.129,-0.778 0.129,-1.167c0,-0.259 -0.129,-0.648 -0.259,-0.907c-0.129,-0.13 -0.388,-0.259 -0.518,-0.259c-0.129,-0.13 -0.517,-0.389 -0.776,-0.389c-0.129,-0.13 -0.647,-0.13 -0.776,0c-0.129,0.13 0.259,0.778 0.259,1.037c-0.129,0.13 -0.259,0.259 -0.388,0.259c-0.129,0 -0.517,-0.259 -0.647,-0.259c-0.259,0 -0.647,0.13 -0.647,0.389c-0.129,0 0,0.389 0,0.389c-0.259,0.259 -0.776,0.13 -1.035,0.13c-0.259,-0.13 -0.647,-0.519 -0.776,-0.648c-0.388,-0.13 -1.035,-0.259 -1.294,-0.13c-0.388,0 -1.164,0.259 -1.294,0.648c-0.129,0.13 0.129,0.389 0,0.519c-0.259,0.259 -1.164,0.13 -1.423,0.259c-0.259,0 -0.647,0.519 -0.776,0.389c-0.259,0 -0.259,-0.778 -0.388,-0.908c-0.259,0 -0.518,0 -0.647,0c-0.129,0.13 -0.129,0.648 -0.129,0.778c-0.129,0.13 -0.259,0.259 -0.388,0.389c-0.259,0 -0.906,-0.13 -1.164,-0.259c-0.129,-0.13 -0.259,-0.389 -0.388,-0.519c-0.129,-0.13 -0.776,0 -0.906,-0.259c-0.129,0 -0.129,-0.389 -0.129,-0.519c-0.129,0 -0.388,0 -0.518,-0.13c-0.259,-0.13 -0.517,-0.518 -0.776,-0.648c-0.259,0 -0.647,0 -0.776,0s-0.518,0.259 -0.647,0.389c-0.259,0 -0.776,0.13 -1.035,0c-0.131,0.004 -0.39,0.004 -0.648,-0.125l0,0z"/>
 </g>
</svg>