<svg width="730" height="203" viewBox="0 0 730 203" fill="none" xmlns="http://www.w3.org/2000/svg">
<path d="M729 14V173C729 189.569 715.569 203 699 203H29.4404L14 189L29.4404 184.824V44C29.4404 27.4315 42.8719 14 59.4404 14H661.223L713 0L729 14Z" fill="#2B4F75"/>
<path d="M14 30C14 13.4315 27.4315 0 44 0H713V159C713 175.569 699.569 189 683 189H14V30Z" fill="#387B79"/>
<path fill-rule="evenodd" clip-rule="evenodd" d="M65.96 43.2V133.056H44.2V43.2H65.96ZM41 40V136.256L54.184 148.672H81.576V53.184L69.16 40H41Z" fill="#2B4F75"/>
<path fill-rule="evenodd" clip-rule="evenodd" d="M167.48 65.6C166.456 65.4293 165.432 65.344 164.408 65.344H116.92V77.248H164.28C165.133 77.248 166.115 77.1627 167.224 76.992C168.333 76.8213 169.357 76.5227 170.296 76.096C171.235 75.6693 172.003 75.072 172.6 74.304C173.283 73.536 173.624 72.5547 173.624 71.36C173.624 70.08 173.325 69.056 172.728 68.288C172.131 67.52 171.363 66.9227 170.424 66.496C169.571 66.0693 168.589 65.7707 167.48 65.6ZM193.72 58.816C195.256 62.3147 196.024 66.496 196.024 71.36C196.024 77.5893 194.573 82.752 191.672 86.848C188.771 90.944 184.504 94.1867 178.872 96.576V96.704C176.653 97.472 173.88 98.0693 170.552 98.496C167.224 98.9227 163.597 99.2213 159.672 99.392C155.832 99.5627 151.821 99.648 147.64 99.648C143.459 99.648 139.448 99.6053 135.608 99.52C131.768 99.3493 128.184 99.2213 124.856 99.136C121.613 99.0507 118.968 99.008 116.92 99.008V133.056H94.776V43.2H164.408C169.101 43.2 173.368 43.7547 177.208 44.864C181.133 45.9733 184.461 47.68 187.192 49.984C190.008 52.288 192.184 55.232 193.72 58.816ZM91.576 40V136.256L104.76 148.672H132.536V115.136C137.571 115.221 142.349 115.264 146.872 115.264H160.568C163.725 115.264 166.84 115.221 169.912 115.136C173.069 115.051 176.056 114.88 178.872 114.624C181.688 114.368 184.248 114.069 186.552 113.728C188.941 113.301 190.989 112.789 192.696 112.192C198.925 109.461 203.619 105.835 206.776 101.312C210.019 96.7893 211.64 91.072 211.64 84.16C211.64 79.296 211.171 74.816 210.232 70.72C209.293 66.624 207.587 63.3387 205.112 60.864C201.272 56.3413 197.603 52.7147 194.104 49.984C190.605 47.2533 187.192 45.1627 183.864 43.712C180.621 42.176 177.379 41.1947 174.136 40.768C170.979 40.256 167.736 40 164.408 40H91.576Z" fill="#2B4F75"/>
<path fill-rule="evenodd" clip-rule="evenodd" d="M297.416 65.6C296.307 65.4293 295.24 65.344 294.216 65.344H246.728V77.248H294.088C294.941 77.248 295.923 77.1627 297.032 76.992C298.227 76.8213 299.293 76.5227 300.232 76.096C301.256 75.6693 302.109 75.072 302.792 74.304C303.475 73.536 303.816 72.5547 303.816 71.36C303.816 70.08 303.475 69.056 302.792 68.288C302.195 67.52 301.427 66.9227 300.488 66.496C299.549 66.0693 298.525 65.7707 297.416 65.6ZM323.656 58.816C325.192 62.3147 325.96 66.496 325.96 71.36C325.96 83.136 320.627 91.3707 309.96 96.064L342.216 133.056H312.776L283.336 99.008H246.728V133.056H224.84V43.2H294.216C298.909 43.2 303.176 43.7547 307.016 44.864C310.941 45.9733 314.312 47.68 317.128 49.984C319.944 52.288 322.12 55.232 323.656 58.816ZM221.64 40V136.256L234.824 148.672H262.344V114.624H292.68L311.368 136.256L324.296 148.672H361.16C358.6 145.771 355.869 142.656 352.968 139.328C350.152 136.085 347.293 132.8 344.392 129.472C341.491 126.059 338.589 122.688 335.688 119.36C332.787 116.032 330.013 112.832 327.368 109.76C331.976 107.029 335.475 103.488 337.864 99.136C340.339 94.784 341.576 89.792 341.576 84.16C341.576 79.296 340.851 74.816 339.4 70.72C338.035 66.5387 336.115 63.2107 333.64 60.736C329.8 56.2133 326.173 52.5867 322.76 49.856C319.432 47.1253 316.189 45.0347 313.032 43.584C309.96 42.1333 306.888 41.1947 303.816 40.768C300.744 40.256 297.544 40 294.216 40H221.64Z" fill="#2B4F75"/>
<path fill-rule="evenodd" clip-rule="evenodd" d="M396.12 43.2V133.056H374.36V43.2H396.12ZM371.16 40V136.256L384.344 148.672H411.736V53.184L399.32 40H371.16Z" fill="#2B4F75"/>
<path fill-rule="evenodd" clip-rule="evenodd" d="M459.24 107.584C464.445 109.803 470.12 110.912 476.264 110.912C480.36 110.912 484.371 110.699 488.296 110.272C492.221 109.76 495.72 108.736 498.792 107.2C501.864 105.579 504.339 103.275 506.216 100.288C508.093 97.3013 509.032 93.248 509.032 88.128V43.2H531.176V88.128C531.176 96.2347 529.939 103.147 527.464 108.864C524.989 114.496 521.491 119.104 516.968 122.688C512.531 126.272 507.24 128.917 501.096 130.624C494.952 132.245 488.168 133.056 480.744 133.056C474.941 133.056 469.437 132.843 464.232 132.416C459.027 131.904 454.12 130.837 449.512 129.216C444.904 127.509 440.637 125.035 436.712 121.792C432.787 118.549 429.245 114.112 426.088 108.48L446.184 96.448C449.768 101.568 454.12 105.28 459.24 107.584ZM487.016 107.072C483.517 107.499 479.933 107.712 476.264 107.712C472.424 107.712 468.584 107.157 464.744 106.048C460.989 104.939 457.576 103.189 454.504 100.8C453.309 99.8613 452.243 98.88 451.304 97.856C450.451 96.832 449.683 95.8933 449 95.04C448.232 94.1013 447.549 93.1627 446.952 92.224L421.736 107.2C422.845 109.163 423.997 111.04 425.192 112.832C426.301 114.624 427.667 116.544 429.288 118.592C430.909 120.64 432.872 122.901 435.176 125.376C437.565 127.851 440.552 130.709 444.136 133.952C447.464 137.28 451.005 139.883 454.76 141.76C458.6 143.723 462.568 145.216 466.664 146.24C470.845 147.264 475.155 147.904 479.592 148.16C484.115 148.501 488.765 148.672 493.544 148.672C501.309 148.672 508.435 147.776 514.92 145.984C521.491 144.277 527.123 141.504 531.816 137.664C536.595 133.909 540.264 129.003 542.824 122.944C545.469 116.885 546.792 109.547 546.792 100.928V53.184L534.376 40H505.832V88.128C505.832 92.48 504.979 95.9787 503.272 98.624C501.565 101.184 499.304 103.147 496.488 104.512C493.757 105.792 490.6 106.645 487.016 107.072Z" fill="#2B4F75"/>
<path fill-rule="evenodd" clip-rule="evenodd" d="M660.6 65.344H582.136V77.248H647.288V99.008H582.136V110.912H660.728V133.056H559.992V43.2H660.6V65.344ZM556.792 40V136.256L569.976 148.672H676.344V120.896L662.904 107.712V87.232L656.632 80.96H676.216V53.184L663.8 40H556.792Z" fill="#2B4F75"/>
</svg>
