<svg id="iprij-logo" width="602" height="203" viewBox="0 0 602 203" fill="none" xmlns="http://www.w3.org/2000/svg">
    <!-- Fond de base -->
    <path d="M602 14V173C602 189.569 588.569 203 572 203H13L0 189L13 184.828V44C13 27.4315 26.4315 14 43 14H545.37L589 0L602 14Z" fill="#2B4F75"/>
    <path d="M0 30C0 13.4315 13.4315 0 30 0H589V159C589 175.569 575.569 189 559 189H0V30Z" fill="#387B79"/>
    
    <!-- Lettre I -->
    <g class="letter-I">
        <path fill-rule="evenodd" clip-rule="evenodd" d="M65.96 43.2V133.056H44.2V43.2H65.96ZM41 40V136.256L54.184 148.672H81.576V53.184L69.16 40H41Z" fill="#2B4F75"/>
    </g>
    
    <!-- Lettre P -->
    <g class="letter-P">
        <path fill-rule="evenodd" clip-rule="evenodd" d="M167.904 65.6C166.88 65.4293 165.856 65.344 164.832 65.344H117.344V77.248H164.704C165.557 77.248 166.539 77.1627 167.648 76.992C168.757 76.8213 169.781 76.5227 170.72 76.096C171.659 75.6693 172.427 75.072 173.024 74.304C173.707 73.536 174.048 72.5547 174.048 71.36C174.048 70.08 173.749 69.056 173.152 68.288C172.555 67.52 171.787 66.9227 170.848 66.496C169.995 66.0693 169.013 65.7707 167.904 65.6ZM194.144 58.816C195.68 62.3147 196.448 66.496 196.448 71.36C196.448 77.5893 194.997 82.752 192.096 86.848C189.195 90.944 184.928 94.1867 179.296 96.576V96.704C177.077 97.472 174.304 98.0693 170.976 98.496C167.648 98.9227 164.021 99.2213 160.096 99.392C156.256 99.5627 152.245 99.648 148.064 99.648C143.883 99.648 139.872 99.6053 136.032 99.52C132.192 99.3493 128.608 99.2213 125.28 99.136C122.037 99.0507 119.392 99.008 117.344 99.008V133.056H95.2V43.2H164.832C169.525 43.2 173.792 43.7547 177.632 44.864C181.557 45.9733 184.885 47.68 187.616 49.984C190.432 52.288 192.608 55.232 194.144 58.816ZM92 40V136.256L105.184 148.672H132.96V115.136C137.995 115.221 142.773 115.264 147.296 115.264H160.992C164.149 115.264 167.264 115.221 170.336 115.136C173.493 115.051 176.48 114.88 179.296 114.624C182.112 114.368 184.672 114.069 186.976 113.728C189.365 113.301 191.413 112.789 193.12 112.192C199.349 109.461 204.043 105.835 207.2 101.312C210.443 96.7893 212.064 91.072 212.064 84.16C212.064 79.296 211.595 74.816 210.656 70.72C209.717 66.624 208.011 63.3387 205.536 60.864C201.696 56.3413 198.027 52.7147 194.528 49.984C191.029 47.2533 187.616 45.1627 184.288 43.712C181.045 42.176 177.803 41.1947 174.56 40.768C171.403 40.256 168.16 40 164.832 40H92Z" fill="#2B4F75"/>
    </g>
    
    <!-- Lettre R -->
    <g class="letter-R">
        <path fill-rule="evenodd" clip-rule="evenodd" d="M297.776 65.6C296.667 65.4293 295.6 65.344 294.576 65.344H247.088V77.248H294.448C295.301 77.248 296.283 77.1627 297.392 76.992C298.587 76.8213 299.653 76.5227 300.592 76.096C301.616 75.6693 302.469 75.072 303.152 74.304C303.835 73.536 304.176 72.5547 304.176 71.36C304.176 70.08 303.835 69.056 303.152 68.288C302.555 67.52 301.787 66.9227 300.848 66.496C299.909 66.0693 298.885 65.7707 297.776 65.6ZM324.016 58.816C325.552 62.3147 326.32 66.496 326.32 71.36C326.32 83.136 320.987 91.3707 310.32 96.064L342.576 133.056H313.136L283.696 99.008H247.088V133.056H225.2V43.2H294.576C299.269 43.2 303.536 43.7547 307.376 44.864C311.301 45.9733 314.672 47.68 317.488 49.984C320.304 52.288 322.48 55.232 324.016 58.816ZM222 40V136.256L235.184 148.672H262.704V114.624H293.04L311.728 136.256L324.656 148.672H361.52C358.96 145.771 356.229 142.656 353.328 139.328C350.512 136.085 347.653 132.8 344.752 129.472C341.851 126.059 338.949 122.688 336.048 119.36C333.147 116.032 330.373 112.832 327.728 109.76C332.336 107.029 335.835 103.488 338.224 99.136C340.699 94.784 341.936 89.792 341.936 84.16C341.936 79.296 341.211 74.816 339.76 70.72C338.395 66.5387 336.475 63.2107 334 60.736C330.16 56.2133 326.533 52.5867 323.12 49.856C319.792 47.1253 316.549 45.0347 313.392 43.584C310.32 42.1333 307.248 41.1947 304.176 40.768C301.104 40.256 297.904 40 294.576 40H222Z" fill="#2B4F75"/>
    </g>
    
    <!-- Lettre I (2ème) -->
    <g class="letter-I2">
        <path fill-rule="evenodd" clip-rule="evenodd" d="M396.96 43.2V133.056H375.2V43.2H396.96ZM372 40V136.256L385.184 148.672H412.576V53.184L400.16 40H372Z" fill="#2B4F75"/>
    </g>
    
    <!-- Lettre J -->
    <g class="letter-J">
        <path fill-rule="evenodd" clip-rule="evenodd" d="M460.504 107.584C465.709 109.803 471.384 110.912 477.528 110.912C481.624 110.912 485.635 110.699 489.56 110.272C493.485 109.76 496.984 108.736 500.056 107.2C503.128 105.579 505.603 103.275 507.48 100.288C509.357 97.3013 510.296 93.248 510.296 88.128V43.2H532.44V88.128C532.44 96.2347 531.203 103.147 528.728 108.864C526.253 114.496 522.755 119.104 518.232 122.688C513.795 126.272 508.504 128.917 502.36 130.624C496.216 132.245 489.432 133.056 482.008 133.056C476.205 133.056 470.701 132.843 465.496 132.416C460.291 131.904 455.384 130.837 450.776 129.216C446.168 127.509 441.901 125.035 437.976 121.792C434.051 118.549 430.509 114.112 427.352 108.48L447.448 96.448C451.032 101.568 455.384 105.28 460.504 107.584ZM488.28 107.072C484.781 107.499 481.197 107.712 477.528 107.712C473.688 107.712 469.848 107.157 466.008 106.048C462.253 104.939 458.84 103.189 455.768 100.8C454.573 99.8613 453.507 98.88 452.568 97.856C451.715 96.832 450.947 95.8933 450.264 95.04C449.496 94.1013 448.813 93.1627 448.216 92.224L423 107.2C424.109 109.163 425.261 111.04 426.456 112.832C427.565 114.624 428.931 116.544 430.552 118.592C432.173 120.64 434.136 122.901 436.44 125.376C438.829 127.851 441.816 130.709 445.4 133.952C448.728 137.28 452.269 139.883 456.024 141.76C459.864 143.723 463.832 145.216 467.928 146.24C472.109 147.264 476.419 147.904 480.856 148.16C485.379 148.501 490.029 148.672 494.808 148.672C502.573 148.672 509.699 147.776 516.184 145.984C522.755 144.277 528.387 141.504 533.08 137.664C537.859 133.909 541.528 129.003 544.088 122.944C546.733 116.885 548.056 109.547 548.056 100.928V53.184L535.64 40H507.096V88.128C507.096 92.48 506.243 95.9787 504.536 98.624C502.829 101.184 500.568 103.147 497.752 104.512C495.021 105.792 491.864 106.645 488.28 107.072Z" fill="#2B4F75"/>
    </g>
</svg>
