<svg width="121" height="203" viewBox="0 0 121 203" fill="none" xmlns="http://www.w3.org/2000/svg">
<path d="M26 40C26 23.4315 39.4315 10 56 10H119V169C119 185.569 105.569 199 89 199H26V40Z" fill="#2B4F75"/>
<path d="M119 10L26 199L14 189L107 0L119 10Z" fill="#2B4F75"/>
<path d="M14 30C14 13.4315 27.4315 0 44 0H107V159C107 175.569 93.5685 189 77 189H14V30Z" fill="#387B79"/>
<path fill-rule="evenodd" clip-rule="evenodd" d="M65.96 43.2V133.056H44.2V43.2H65.96ZM41 40V136.256L54.184 148.672H81.576V53.184L69.16 40H41Z" fill="#2B4F75"/>
</svg>